HIERARCHY
ROOT root
{
	OFFSET	0	13.1	24.9
	CHANNELS 6  Xposition Yposition Zposition Xrotation Yrotation Zrotation
	JOINT spine_1
	{
		OFFSET	0	9.99999	0
		CHANNELS 3  Xrotation Yrotation Zrotation
		JOINT spine_2
		{
			OFFSET	0	112	-10
			CHANNELS 3  Xrotation Yrotation Zrotation
			JOINT spine_3
			{
				OFFSET	0	206.5	19.3
				CHANNELS 3  Xrotation Yrotation Zrotation
				JOINT spine_4
				{
					OFFSET	0	110.4	14.6
					CHANNELS 3  Xrotation Yrotation Zrotation
					JOINT neck_1
					{
						OFFSET	0	71.8	-50.3
						CHANNELS 3  Xrotation Yrotation Zrotation
						JOINT neck_2
						{
							OFFSET	0	86.2	-25.8
							CHANNELS 3  Xrotation Yrotation Zrotation
							JOINT head_ee
							{
								OFFSET	0	179.8	-8.7
								CHANNELS 3  Xrotation Yrotation Zrotation
								End Site
								{
									OFFSET	1	0	0
								}
							}
						}
					}
					JOINT left_clavicle
					{
						OFFSET	-43.2	22.4	-70.8
						CHANNELS 3  Xrotation Yrotation Zrotation
						JOINT left_shoulder
						{
							OFFSET	-93.9	-5.79999	48.7
							CHANNELS 3  Xrotation Yrotation Zrotation
							JOINT left_elbow
							{
								OFFSET	-291.4	-30.8	15.2
								CHANNELS 3  Xrotation Yrotation Zrotation
								JOINT left_lowarm_twist
								{
									OFFSET	-110.7	-3.89999	13.6
									CHANNELS 3  Xrotation Yrotation Zrotation
									JOINT left_hand
									{
										OFFSET	-110.7	-3.89999	13.6
										CHANNELS 3  Xrotation Yrotation Zrotation
										JOINT left_ee
										{
											OFFSET	-80.8	-5.10001	12.1
											CHANNELS 3  Xrotation Yrotation Zrotation
											End Site
											{
												OFFSET	1	0	0
											}
										}
									}
								}
							}
						}
					}
					JOINT right_clavicle
					{
						OFFSET	43.2	22.4	-70.8
						CHANNELS 3  Xrotation Yrotation Zrotation
						JOINT right_shoulder
						{
							OFFSET	93.9	-5.79999	48.7
							CHANNELS 3  Xrotation Yrotation Zrotation
							JOINT right_elbow
							{
								OFFSET	291.4	-30.8	15.2
								CHANNELS 3  Xrotation Yrotation Zrotation
								JOINT right_lowarm_twist
								{
									OFFSET	110.7	-3.89999	13.6
									CHANNELS 3  Xrotation Yrotation Zrotation
									JOINT right_hand
									{
										OFFSET	110.7	-3.89999	13.6
										CHANNELS 3  Xrotation Yrotation Zrotation
										JOINT right_ee
										{
											OFFSET	80.8	-5.10001	12.1
											CHANNELS 3  Xrotation Yrotation Zrotation
											End Site
											{
												OFFSET	1	0	0
											}
										}
									}
								}
							}
						}
					}
				}
			}
		}
	}
	JOINT left_hip
	{
		OFFSET	-82.8	-127.5	0.300001
		CHANNELS 3  Xrotation Yrotation Zrotation
		JOINT left_knee
		{
			OFFSET	-28.2	-396.7	2.2
			CHANNELS 3  Xrotation Yrotation Zrotation
			JOINT left_ankle
			{
				OFFSET	-11.7	-411.3	35.4
				CHANNELS 3  Xrotation Yrotation Zrotation
				JOINT left_toes
				{
					OFFSET	0	-60	-88.6
					CHANNELS 3  Xrotation Yrotation Zrotation
					JOINT left_foot_ee
					{
						OFFSET	-22.5	-16.5	-42.2
						CHANNELS 3  Xrotation Yrotation Zrotation
						End Site
						{
							OFFSET	1	0	0
						}
					}
				}
			}
		}
	}
	JOINT right_hip
	{
		OFFSET	82.8	-127.5	0.300001
		CHANNELS 3  Xrotation Yrotation Zrotation
		JOINT right_knee
		{
			OFFSET	28.2	-396.7	2.2
			CHANNELS 3  Xrotation Yrotation Zrotation
			JOINT right_ankle
			{
				OFFSET	11.7	-411.3	35.4
				CHANNELS 3  Xrotation Yrotation Zrotation
				JOINT right_toes
				{
					OFFSET	0	-60	-88.6
					CHANNELS 3  Xrotation Yrotation Zrotation
					JOINT right_foot_ee
					{
						OFFSET	22.5	-16.5	-42.2
						CHANNELS 3  Xrotation Yrotation Zrotation
						End Site
						{
							OFFSET	1	0	0
						}
					}
				}
			}
		}
	}
}
MOTION
Frames: 15
Frame Time: 0.02
3311.17 734.514 -1481.11 3.64037 54.1385 -5.89909 -2.52235 0.417092 2.20981 -2.51968 0.275667 2.23185 -2.50554 -0.297382 2.22906 -2.51246 0.0582975 2.24805 -12.8847 -15.7212 14.6542 -13.305 -38.9759 9.16954 -0.0 0.0 -0.0 3.36555 17.9965 7.24563 -5.59848 -15.6254 65.071 1.9844 -44.5043 0.811994 -51.8953 -4.29549 4.77834 -0.942822 28.379 5.964 -0.0 0.0 -0.0 13.7704 26.3352 -27.4249 -10.4528 14.7204 -57.2548 1.85786 42.6201 -0.72478 59.4277 1.72324 7.05489 0.05789 -15.8517 -6.83357 0.0 0.0 0.0 -10.9934 -3.76984 3.15271 2.06896 -0.0907112 -0.3045 39.9419 26.3021 -5.20639 -11.4213 0.0 0.0 -0.0 0.0 -0.0 4.60199 -6.38725 1.57707 -3.09403 -0.114969 -0.460859 20.8775 29.2023 3.51658 4.33262 -0.0 -0.0 0.0 0.0 0.0 
3310.16 736.067 -1482.03 3.78844 52.7588 -5.90928 -2.52496 0.663526 2.20503 -2.52241 0.521906 2.24275 -2.49819 -0.0614047 2.30183 -2.50546 0.3028 2.28266 -13.2656 -15.6154 14.4317 -13.766 -38.5826 8.82656 -0.0 0.0 -0.0 2.90403 19.003 6.57166 -5.52203 -19.1447 64.7757 2.0428 -45.3348 0.853229 -51.1981 -4.21283 4.74409 -1.02778 28.293 5.46686 -0.0 0.0 -0.0 13.7287 26.8375 -27.2642 -10.3566 13.9411 -57.7981 1.68667 39.8763 -0.611874 59.4453 1.72479 7.05652 0.108235 -16.1736 -7.27026 0.0 0.0 0.0 -10.9477 -3.27319 3.41086 0.794824 -0.0335444 -0.117356 39.9364 26.7457 -5.22166 -11.7157 0.0 0.0 -0.0 0.0 -0.0 4.80435 -7.78636 1.38219 -4.81844 -0.168184 -0.720145 20.6207 29.0495 3.47186 3.99245 -0.0 -0.0 0.0 0.0 0.0 
3308.84 737.497 -1480.73 4.21984 52.1604 -6.30168 -2.49503 0.694753 2.15914 -2.4926 0.555988 2.19894 -2.4676 -0.0161217 2.26805 -2.47461 0.342186 2.24216 -13.1755 -15.7236 14.5288 -13.6658 -38.8597 8.91935 -0.0 0.0 -0.0 3.24071 19.9302 7.10047 -4.46003 -18.244 65.4118 2.09017 -45.9911 0.887116 -50.4936 -4.12975 4.70847 -0.886165 28.0545 6.14001 -0.0 0.0 -0.0 13.7544 27.1465 -27.2839 -9.9127 13.4169 -57.7831 1.58497 38.1343 -0.547857 59.46 1.72609 7.0579 0.2118 -15.4099 -7.62035 0.0 0.0 0.0 -11.0427 -2.88673 3.81704 -0.179504 0.00734992 0.026566 41.1131 26.0724 -5.31064 -11.2147 0.0 0.0 -0.0 0.0 -0.0 4.75456 -8.44632 1.48457 -4.82119 -0.168262 -0.720559 21.0928 29.1907 3.54781 4.46885 -0.0 -0.0 0.0 0.0 0.0 
3308.71 738.871 -1485.17 4.98691 51.8582 -6.86575 -2.56778 0.682448 2.12486 -2.56543 0.545887 2.16396 -2.5412 -0.0199536 2.23163 -2.548 0.332654 2.2068 -13.866 -15.5207 14.1848 -14.4893 -38.1626 8.36986 -0.0 0.0 -0.0 2.91776 20.1001 6.62713 -3.7762 -19.6194 65.019 2.08344 -45.8987 0.882273 -49.5592 -4.02021 4.65965 -0.628735 25.501 6.54166 -0.0 0.0 -0.0 14.0613 27.687 -27.9263 -9.73376 12.8596 -57.5956 1.42362 35.1902 -0.451485 60.0998 1.78282 7.11713 0.107884 -16.27 -7.30523 0.0 0.0 0.0 -11.3408 -2.58955 3.87923 -0.946537 0.0378156 0.140334 42.2217 26.1052 -5.41541 -10.7848 0.0 0.0 -0.0 0.0 -0.0 4.39617 -9.57583 1.50498 -5.51351 -0.187421 -0.825079 21.4877 31.4883 3.71701 4.52171 -0.0 -0.0 0.0 0.0 0.0 
3305.64 732.949 -1489.6 5.14066 52.4009 -6.9148 -2.48019 0.756765 2.11962 -2.4779 0.620387 2.16345 -2.45085 0.055853 2.24991 -2.45768 0.410396 2.21289 -11.9709 -15.1091 14.7455 -12.1248 -38.0137 9.86828 -0.0 0.0 -0.0 2.46667 19.9701 5.9565 -3.01669 -21.5142 64.2096 2.13255 -46.5652 0.917739 -49.1488 -3.97236 4.63764 -0.625135 23.427 5.73188 -0.0 0.0 -0.0 14.1426 28.2662 -28.0347 -10.1465 13.8254 -57.565 1.22989 31.3506 -0.345146 60.6909 1.83582 7.17129 -0.00276278 -17.6434 -7.15413 0.0 0.0 0.0 -11.6782 -2.3741 3.04889 -1.56771 0.0613684 0.232754 42.211 25.0926 -5.37834 -10.9703 0.0 0.0 -0.0 0.0 -0.0 4.37569 -10.3531 1.50403 -9.07759 -0.265978 -1.36629 22.7408 31.4415 3.90084 4.34817 -0.0 -0.0 0.0 0.0 0.0 
3303.05 735.116 -1492.98 4.92296 52.4608 -6.49263 -2.44922 0.759794 2.085 -2.44701 0.625611 2.1291 -2.42027 0.0707467 2.21794 -2.42689 0.420057 2.17897 -12.0085 -14.7528 14.4566 -12.1562 -37.1556 9.68341 -0.0 0.0 -0.0 2.17729 21.0275 5.58293 -3.02713 -22.0955 64.1409 2.22878 -47.8253 0.98835 -48.6681 -3.91651 4.61143 -0.596295 21.1783 4.98948 -0.0 0.0 -0.0 14.2569 27.7418 -28.3754 -9.25928 12.4129 -57.9502 1.01357 26.6604 -0.240168 60.8632 1.85138 7.18698 0.0511527 -18.6521 -7.86967 0.0 0.0 0.0 -10.8568 -1.97013 1.79286 -2.38672 0.0908864 0.35498 40.1512 24.7276 -5.17358 -11.2013 0.0 0.0 -0.0 0.0 -0.0 4.24641 -10.8113 1.8736 -11.0378 -0.294789 -1.66568 23.8677 32.8159 4.14372 3.08014 -0.0 -0.0 0.0 0.0 0.0 
3296.94 734.679 -1496.57 6.35183 53.0161 -7.81777 -2.69233 0.772344 2.18397 -2.68989 0.631843 2.22866 -2.66131 0.0420223 2.31607 -2.66856 0.407179 2.2804 -11.7998 -14.5724 13.0816 -11.9846 -35.9667 8.45303 -0.0 0.0 -0.0 1.92013 21.5179 5.23918 -2.34195 -22.8189 63.5839 2.23333 -47.8834 0.991721 -47.4931 -3.78095 4.54541 -0.451171 19.023 4.97959 -0.0 0.0 -0.0 13.7695 27.5145 -27.2703 -10.2325 15.3037 -58.6452 0.858035 23.0275 -0.174787 61.3182 1.89268 7.22818 -0.412392 -21.4015 -6.16266 0.0 0.0 0.0 -10.6157 -1.69372 1.0469 -4.14163 0.148229 0.618193 39.5818 24.2134 -5.1028 -12.4214 0.0 0.0 -0.0 0.0 -0.0 3.52361 -11.6291 2.20236 -13.1156 -0.314126 -1.98388 24.7811 32.1486 4.2364 2.03929 -0.0 -0.0 0.0 0.0 0.0 
3287.36 734.391 -1504.76 9.05124 53.4115 -10.2745 -2.97057 0.748424 2.21723 -2.96804 0.605856 2.26033 -2.93982 -0.00259434 2.34008 -2.94728 0.36691 2.31115 -11.4221 -14.9826 14.8935 -11.4408 -37.9469 10.2907 -0.0 0.0 -0.0 1.67943 22.7531 4.97169 -2.46598 -23.4427 63.373 2.33482 -49.1462 1.06776 -48.718 -3.92231 4.61418 -0.560017 16.8124 3.41456 -0.0 0.0 -0.0 14.1011 28.3726 -27.9227 -9.0688 12.271 -59.4638 0.692091 18.9239 -0.115345 61.2077 1.88262 7.2182 -0.184739 -21.8508 -7.67875 0.0 0.0 0.0 -10.7501 -0.22988 0.693707 -9.20182 0.268108 1.38523 41.2401 23.3124 -5.23156 -11.9191 0.0 0.0 -0.0 0.0 -0.0 2.01063 -11.2642 3.44145 -16.6103 -0.320595 -2.51994 25.6079 32.9876 4.40543 1.43484 -0.0 -0.0 0.0 0.0 0.0 
3280.48 731.253 -1506.99 10.5621 54.2971 -12.0435 -3.03391 0.732487 2.28307 -3.0312 0.585766 2.32502 -3.00286 -0.0414719 2.39727 -3.01072 0.337545 2.37377 -11.2325 -15.469 13.3999 -11.3654 -37.9179 8.7086 -0.0 0.0 -0.0 1.57705 23.3314 4.86582 -2.21693 -23.2713 63.2927 2.38251 -49.7182 1.10398 -47.951 -3.83362 4.57147 -0.521128 14.6365 2.75046 -0.0 0.0 -0.0 13.815 27.5121 -27.3763 -7.95341 12.5313 -60.1674 0.540254 14.9829 -0.0710443 61.5845 1.91701 7.25214 -0.477318 -27.3918 -8.12594 0.0 0.0 0.0 -9.84847 0.957665 0.0645741 -13.9824 0.31878 2.11679 40.4105 18.3769 -5.03024 -12.3504 0.0 0.0 -0.0 0.0 -0.0 0.661576 -12.9719 4.44001 -16.6377 -0.320517 -2.52415 27.6428 32.4686 4.6547 0.715561 -0.0 -0.0 0.0 0.0 0.0 
3276.71 726.201 -1509.6 11.5012 56.0997 -13.2679 -3.15131 0.782734 2.40291 -3.14832 0.628292 2.44781 -3.11628 -0.0374512 2.52683 -3.12501 0.361958 2.50107 -12.4498 -16.1377 12.4652 -12.9568 -38.4502 7.03443 -0.0 0.0 -0.0 1.27794 23.1432 4.44093 -1.19762 -24.5156 63.1367 2.41418 -50.0907 1.12821 -47.3113 -3.76009 4.53495 -0.627967 13.9664 1.8039 -0.0 0.0 -0.0 13.9647 28.1873 -27.6318 -8.82529 12.0448 -60.0241 0.463881 12.9417 -0.0526139 62.1557 1.96956 7.30316 -0.470274 -24.9165 -7.20914 0.0 0.0 0.0 -9.05318 0.154616 0.53161 -16.7516 0.320169 2.54162 41.8505 21.8725 -5.24514 -11.4081 0.0 0.0 -0.0 0.0 -0.0 -1.23776 -10.323 4.7229 -15.9758 -0.32185 -2.42261 31.2538 33.3589 5.18934 -0.43373 0.0 0.0 0.0 0.0 0.0 
3268.42 723.38 -1509.6 12.8174 57.4627 -15.1125 -3.23138 0.787506 2.45547 -3.22825 0.629713 2.50057 -3.19529 -0.0535145 2.57804 -3.20438 0.354175 2.55417 -12.0044 -15.9076 12.6952 -12.3813 -38.2088 7.53246 -0.0 0.0 -0.0 1.43233 22.8811 4.63628 -1.19319 -24.2699 62.9008 2.33192 -49.111 1.06556 -48.9482 -3.94904 4.62677 -0.642804 12.3676 1.03323 -0.0 0.0 -0.0 13.8122 27.9508 -27.3101 -8.39418 12.0003 -60.3655 0.27621 7.79137 -0.0188093 61.6287 1.92106 7.25611 -0.548136 -26.5952 -7.42462 0.0 0.0 0.0 -8.62443 3.22584 1.37529 -21.3284 0.277486 3.24238 40.1593 22.1282 -5.09717 -11.0131 0.0 0.0 -0.0 0.0 -0.0 -0.101313 -14.4425 6.71403 -21.0641 -0.281473 -3.20202 32.8485 32.9323 5.35499 -0.043055 0.0 0.0 0.0 0.0 0.0 
3267.54 721.646 -1509.65 14.0684 59.5002 -16.839 -3.22187 0.802782 2.5415 -3.2185 0.639489 2.58739 -3.18379 -0.0664948 2.66436 -3.19352 0.354977 2.64147 -12.8536 -16.1892 12.1253 -13.4665 -38.2932 6.51095 -0.0 0.0 -0.0 0.685329 22.6685 3.5811 -0.452841 -24.8465 64.2299 2.41045 -50.0472 1.12535 -48.6479 -3.91418 4.61032 -0.613761 10.8318 0.563596 -0.0 0.0 -0.0 13.7413 27.3706 -27.224 -8.28452 12.0216 -60.3798 0.194786 5.51161 -0.00937606 61.8452 1.94093 7.27549 -0.679984 -27.38 -7.00104 0.0 0.0 0.0 -6.711 3.9915 1.25245 -26.4033 0.164939 4.01278 38.214 19.7807 -4.85523 -12.1752 0.0 0.0 -0.0 0.0 -0.0 -0.878313 -12.7159 7.65555 -20.6338 -0.287565 -3.13628 34.3762 33.4912 5.57935 -0.893894 0.0 0.0 0.0 0.0 0.0 
3262.33 717.073 -1512.92 15.3776 60.7731 -18.7755 -3.34307 0.805233 2.56066 -3.33965 0.640717 2.60667 -3.30445 -0.0760574 2.68313 -3.31432 0.348494 2.6615 -12.2461 -16.3123 11.4619 -12.7802 -38.1698 6.06862 -0.0 0.0 -0.0 0.608914 22.5943 3.4679 -0.109518 -25.024 64.4944 2.35227 -49.357 1.08098 -47.7753 -3.81338 4.56152 -0.941709 10.3069 -1.75624 -0.0 0.0 -0.0 13.8146 28.3232 -27.2641 -8.43685 10.9015 -60.7165 0.175037 4.95574 -0.00757457 61.2457 1.88608 7.22163 -1.35025 -28.0697 -3.61984 0.0 0.0 0.0 -5.91266 5.0067 1.0045 -29.2671 0.0714405 4.44229 40.7659 18.8783 -5.07308 -11.6657 0.0 0.0 -0.0 0.0 -0.0 -1.50884 -13.1226 8.27191 -21.019 -0.282135 -3.19514 36.5531 33.1762 5.80126 -1.94517 0.0 0.0 0.0 0.0 0.0 
3258.54 719.842 -1510.37 17.1591 62.4428 -20.9031 -3.41565 0.680442 2.59333 -3.41206 0.514102 2.63133 -3.38243 -0.208452 2.67294 -3.39233 0.21615 2.67233 -13.7515 -16.2379 10.1596 -14.6152 -37.0975 4.21682 -0.0 0.0 -0.0 1.35476 21.7704 4.44978 0.0398657 -23.32 64.7684 2.07687 -45.8084 0.877564 -47.6772 -3.8021 4.55594 -0.951612 10.0592 -1.92849 -0.0 0.0 -0.0 13.683 27.684 -27.0466 -8.14363 10.2367 -60.6824 0.188935 5.34704 -0.0088224 61.1034 1.87314 7.20877 -2.23844 -28.4652 0.998066 0.0 0.0 0.0 -5.36751 6.18565 1.1972 -32.4039 -0.0554937 4.90689 38.7281 17.8271 -4.86412 -13.9509 0.0 0.0 -0.0 0.0 -0.0 -0.691023 -16.6084 9.63535 -21.3999 -0.276375 -3.2533 36.7915 32.548 5.77784 -2.78691 0.0 0.0 0.0 0.0 0.0 
3252.44 723.815 -1510.32 17.0352 64.2408 -21.1344 -3.43967 0.721637 2.61333 -3.43604 0.553941 2.65392 -3.40416 -0.177092 2.70528 -3.41429 0.25222 2.69932 -14.0515 -16.6116 10.2837 -15.027 -37.8537 4.06166 -0.0 0.0 -0.0 0.94887 22.9184 3.96857 -0.292929 -24.1386 65.5085 2.01676 -44.9675 0.83477 -47.8696 -3.82424 4.56687 -1.22105 9.65169 -3.8388 -0.0 0.0 -0.0 13.4586 26.855 -26.6342 -8.30008 10.8831 -60.7999 0.194009 5.48978 -0.00930159 59.5507 1.73409 7.06633 -2.93776 -28.5457 4.73094 0.0 0.0 0.0 -4.23109 7.53665 0.751276 -32.1718 -0.0452276 4.87274 37.288 17.4695 -4.72047 -14.3266 0.0 0.0 -0.0 0.0 -0.0 -0.652117 -15.211 10.4411 -21.0047 -0.282343 -3.19295 35.2387 32.5284 5.6044 -3.69267 0.0 0.0 0.0 0.0 0.0 
